<svg width="221" height="222" viewBox="0 0 221 222" fill="none" xmlns="http://www.w3.org/2000/svg">
<path d="M113.186 49.9566L110.861 50.4487C109.874 50.6564 86.5077 55.3733 74.7847 43.2931C69.2165 37.5482 65.5614 30.5531 64.4864 23.6089C63.3385 16.18 65.2153 9.64412 69.7995 5.20789C74.3838 0.771663 80.965 -0.908781 88.3516 0.46911C95.2754 1.76316 102.141 5.63802 107.705 11.3829C119.41 23.4668 113.966 46.6795 113.725 47.6601L113.186 49.9566ZM78.8551 8.25894C77.4324 8.75265 76.1333 9.54851 75.047 10.5919C72.2702 13.282 71.1624 17.4923 71.9277 22.4461C72.7658 27.8738 75.703 33.4182 80.1961 38.0549C87.1819 45.2652 101.255 44.2518 106.9 43.4717C107.837 37.8544 109.309 23.8131 102.323 16.6028C97.8299 11.9661 92.382 8.85675 86.9851 7.85431C83.9605 7.27837 81.1873 7.43512 78.8551 8.25894Z" fill="#F4B167"/>
<path d="M109.739 50.0584L109.211 47.74C108.988 46.7522 103.945 23.4483 115.857 11.5722C121.52 5.9221 128.462 2.16753 135.397 1.00106C142.805 -0.252898 149.365 1.54419 153.865 6.05697C158.366 10.5697 160.137 17.1384 158.861 24.5455C157.666 31.4714 153.887 38.3973 148.224 44.0584C136.319 55.9162 113.04 50.8129 112.053 50.5869L109.739 50.0584ZM144.784 8.95856C142.467 8.091 139.682 7.89052 136.662 8.40449C131.246 9.31944 125.729 12.334 121.174 16.8942C114.064 23.9842 115.293 38.0365 116.134 43.6829C121.764 44.5395 135.812 45.819 142.929 38.7254C147.503 34.1652 150.535 28.6755 151.467 23.2624C152.32 18.3231 151.285 14.0947 148.552 11.3571C147.483 10.2946 146.196 9.47627 144.781 8.95856H144.784Z" fill="#F4B167"/>
<path d="M212.8 46.0811L8 46.0811C3.58172 46.0811 0 49.6628 0 54.0811L0 78.2404C0 82.6587 3.58172 86.2404 8 86.2404L212.8 86.2404C217.218 86.2404 220.8 82.6587 220.8 78.2404V54.0811C220.8 49.6628 217.218 46.0811 212.8 46.0811Z" fill="#7BB6D7"/>
<path d="M129.041 46.0823H91.7616V86.2417H129.041V46.0823Z" fill="#F4B167"/>
<g filter="url(#filter0_d)">
<path d="M208.707 86.6236H12.7356V208.873C12.7356 213.291 16.3174 216.873 20.7356 216.873H200.707C205.125 216.873 208.707 213.291 208.707 208.873V86.6236Z" fill="#AED9EF"/>
<path d="M129.21 86.8119H92.4544V216.908H129.21V86.8119Z" fill="#F4B167"/>
<path opacity="0.1" d="M208.707 86.6236H12.7356V90.2085H208.707V86.6236Z" fill="black"/>
</g>
<defs>
<filter id="filter0_d" x="6.73563" y="79.6236" width="207.971" height="142.284" filterUnits="userSpaceOnUse" color-interpolation-filters="sRGB">
<feFlood flood-opacity="0" result="BackgroundImageFix"/>
<feColorMatrix in="SourceAlpha" type="matrix" values="0 0 0 0 0 0 0 0 0 0 0 0 0 0 0 0 0 0 127 0"/>
<feOffset dy="-1"/>
<feGaussianBlur stdDeviation="3"/>
<feColorMatrix type="matrix" values="0 0 0 0 0 0 0 0 0 0 0 0 0 0 0 0 0 0 0.25 0"/>
<feBlend mode="normal" in2="BackgroundImageFix" result="effect1_dropShadow"/>
<feBlend mode="normal" in="SourceGraphic" in2="effect1_dropShadow" result="shape"/>
</filter>
</defs>
</svg>
