<svg width="146" height="93" viewBox="0 0 146 93" fill="none" xmlns="http://www.w3.org/2000/svg">
<path d="M99.5455 39.8571C110.562 39.8571 119.388 30.9557 119.388 19.9286C119.388 8.90143 110.562 0 99.5455 0C88.5291 0 79.6364 8.90143 79.6364 19.9286C79.6364 30.9557 88.5291 39.8571 99.5455 39.8571ZM46.4545 39.8571C57.4709 39.8571 66.2973 30.9557 66.2973 19.9286C66.2973 8.90143 57.4709 0 46.4545 0C35.4382 0 26.5455 8.90143 26.5455 19.9286C26.5455 30.9557 35.4382 39.8571 46.4545 39.8571ZM46.4545 53.1429C30.9918 53.1429 0 60.915 0 76.3929V93H92.9091V76.3929C92.9091 60.915 61.9173 53.1429 46.4545 53.1429ZM99.5455 53.1429C97.6209 53.1429 95.4309 53.2757 93.1082 53.475C100.806 59.055 106.182 66.5614 106.182 76.3929V93H146V76.3929C146 60.915 115.008 53.1429 99.5455 53.1429Z" fill="#828282"/>
</svg>
