<svg width="18" height="12" viewBox="0 0 18 12" fill="none" xmlns="http://www.w3.org/2000/svg">
<path d="M13.35 4.5V5.93076V6.06924V7.5V11C13.35 11.191 13.191 11.35 13 11.35H1C0.808985 11.35 0.65 11.191 0.65 11V1C0.65 0.808985 0.808985 0.65 1 0.65H13C13.191 0.65 13.35 0.808985 13.35 1V4.5ZM14.4596 7.04038L13.4192 6L14.4596 4.95962L17.2646 2.15459C17.273 2.14622 17.2788 2.14286 17.2813 2.14158C17.2839 2.14021 17.2862 2.13948 17.2887 2.13904C17.2944 2.13805 17.3055 2.13812 17.3191 2.14376C17.3327 2.14939 17.3406 2.15719 17.344 2.16192C17.3454 2.16401 17.3465 2.16615 17.3475 2.169C17.3483 2.17167 17.35 2.1781 17.35 2.18995V9.81005C17.35 9.8219 17.3483 9.82833 17.3475 9.831C17.3465 9.83385 17.3454 9.83599 17.344 9.83808C17.3406 9.84282 17.3327 9.85061 17.3191 9.85625C17.3055 9.86188 17.2944 9.86195 17.2887 9.86096C17.2862 9.86052 17.2839 9.85979 17.2813 9.85842C17.2788 9.85714 17.273 9.85378 17.2646 9.84541L14.4596 7.04038Z" fill="#484848" stroke="#484848" stroke-width="1.3"/>
</svg>
